<?xml version="1.0" encoding="utf-8"?>
<!-- Generator: Adobe Illustrator 24.1.1, SVG Export Plug-In . SVG Version: 6.00 Build 0)  -->
<svg version="1.1" id="Layer_1" xmlns="http://www.w3.org/2000/svg" xmlns:xlink="http://www.w3.org/1999/xlink" x="0px" y="0px"
	 viewBox="0 0 500 500" style="enable-background:new 0 0 500 500;" xml:space="preserve">
<style type="text/css">
	.st0{fill:url(#SVGID_1_);}
	.st1{fill:#F0F0F0;}
</style>
<g>
	<linearGradient id="SVGID_1_" gradientUnits="userSpaceOnUse" x1="-121.4658" y1="100.75" x2="256.7161" y2="588.7947">
		<stop  offset="0" style="stop-color:#28F29C"/>
		<stop  offset="1" style="stop-color:#0CB8E0"/>
	</linearGradient>
	<path class="st0" d="M314.4,474.2c-33.1-45.5-118.1-22.5-134.4-65.1c-11.3-29.4,25-51.2,13.4-81.8C176.8,283.8,92,298.1,78.2,258
		c-10.3-29.9,32.9-49.3,28.4-89.3C102,127.3,48.8,84.4,0,80v420h325.8C323.5,490.3,319.8,481.5,314.4,474.2z"/>
	<polygon class="st1" points="106.7,220.3 94.1,220.3 94.1,207.8 91.4,207.8 91.4,220.3 78.8,220.3 78.8,223.1 91.4,223.1 
		91.4,235.7 94.1,235.7 94.1,223.1 106.7,223.1 	"/>
	<polygon class="st1" points="106.7,313.1 94.1,313.1 94.1,300.6 91.4,300.6 91.4,313.1 78.8,313.1 78.8,315.9 91.4,315.9 
		91.4,328.4 94.1,328.4 94.1,315.9 106.7,315.9 	"/>
	<polygon class="st1" points="106.7,405.9 94.1,405.9 94.1,393.3 91.4,393.3 91.4,405.9 78.8,405.9 78.8,408.6 91.4,408.6 
		91.4,421.2 94.1,421.2 94.1,408.6 106.7,408.6 	"/>
	<polygon class="st1" points="199.4,127.6 186.9,127.6 186.9,115.1 184.1,115.1 184.1,127.6 171.6,127.6 171.6,130.4 184.1,130.4 
		184.1,142.9 186.9,142.9 186.9,130.4 199.4,130.4 	"/>
	<polygon class="st1" points="199.4,220.3 186.9,220.3 186.9,207.8 184.1,207.8 184.1,220.3 171.6,220.3 171.6,223.1 184.1,223.1 
		184.1,235.7 186.9,235.7 186.9,223.1 199.4,223.1 	"/>
	<polygon class="st1" points="199.4,313.1 186.9,313.1 186.9,300.6 184.1,300.6 184.1,313.1 171.6,313.1 171.6,315.9 184.1,315.9 
		184.1,328.4 186.9,328.4 186.9,315.9 199.4,315.9 	"/>
	<polygon class="st1" points="199.4,405.9 186.9,405.9 186.9,393.3 184.1,393.3 184.1,405.9 171.6,405.9 171.6,408.6 184.1,408.6 
		184.1,421.2 186.9,421.2 186.9,408.6 199.4,408.6 	"/>
	<polygon class="st1" points="292.2,220.3 279.7,220.3 279.7,207.8 276.9,207.8 276.9,220.3 264.3,220.3 264.3,223.1 276.9,223.1 
		276.9,235.7 279.7,235.7 279.7,223.1 292.2,223.1 	"/>
	<polygon class="st1" points="292.2,313.1 279.7,313.1 279.7,300.6 276.9,300.6 276.9,313.1 264.3,313.1 264.3,315.9 276.9,315.9 
		276.9,328.4 279.7,328.4 279.7,315.9 292.2,315.9 	"/>
	<polygon class="st1" points="292.2,405.9 279.7,405.9 279.7,393.3 276.9,393.3 276.9,405.9 264.3,405.9 264.3,408.6 276.9,408.6 
		276.9,421.2 279.7,421.2 279.7,408.6 292.2,408.6 	"/>
	<polygon class="st1" points="384.9,405.9 372.4,405.9 372.4,393.3 369.6,393.3 369.6,405.9 357.1,405.9 357.1,408.6 369.6,408.6 
		369.6,421.2 372.4,421.2 372.4,408.6 384.9,408.6 	"/>
</g>
</svg>
