<?xml version="1.0" encoding="utf-8"?>
<!-- Generator: Adobe Illustrator 24.1.1, SVG Export Plug-In . SVG Version: 6.00 Build 0)  -->
<svg version="1.1" id="Layer_1" xmlns="http://www.w3.org/2000/svg" xmlns:xlink="http://www.w3.org/1999/xlink" x="0px" y="0px"
	 viewBox="0 0 500 500" style="enable-background:new 0 0 500 500;" xml:space="preserve">
<style type="text/css">
	.st0{fill:url(#SVGID_1_);}
	.st1{fill:#F0F0F0;}
	.st2{fill:#232323;}
</style>
<linearGradient id="SVGID_1_" gradientUnits="userSpaceOnUse" x1="-130.9542" y1="69.562" x2="276.7698" y2="595.7311">
	<stop  offset="0" style="stop-color:#28F29C"/>
	<stop  offset="1" style="stop-color:#0CB8E0"/>
</linearGradient>
<path class="st0" d="M339,472.2C303.3,423.1,211.7,448,194.1,402c-12.2-31.7,27-55.2,14.4-88.2c-17.9-46.9-109.3-31.4-124.2-74.7
	c-11.1-32.2,35.4-53.1,30.6-96.3C109.9,98.2,52.6,51.9,0,47.2V500h351.3C348.8,489.6,344.7,480.1,339,472.2z"/>
<path class="st1" d="M242.4,238.1c9.2-42.7,75.6-82.7,137.7-73.8c61.7,8.9,116.3,65.6,108,100.8c-8.4,35.9-78.4,33.7-87.3,75.6
	c-6.6,30.9,28,49.1,18.9,70.2c-12.3,28.6-89,26.4-144.9,9c-42.6-13.2-102.3-44.2-99-72c2.9-24.7,53.2-26,65.7-67.5
	C247.2,261.5,238.5,255.8,242.4,238.1z"/>
<polygon class="st1" points="115,198.5 101.5,198.5 101.5,185 98.5,185 98.5,198.5 85,198.5 85,201.5 98.5,201.5 98.5,215 
	101.5,215 101.5,201.5 115,201.5 "/>
<polygon class="st1" points="115,298.5 101.5,298.5 101.5,285 98.5,285 98.5,298.5 85,298.5 85,301.5 98.5,301.5 98.5,315 
	101.5,315 101.5,301.5 115,301.5 "/>
<polygon class="st1" points="115,398.5 101.5,398.5 101.5,385 98.5,385 98.5,398.5 85,398.5 85,401.5 98.5,401.5 98.5,415 
	101.5,415 101.5,401.5 115,401.5 "/>
<polygon class="st1" points="215,98.5 201.5,98.5 201.5,85 198.5,85 198.5,98.5 185,98.5 185,101.5 198.5,101.5 198.5,115 
	201.5,115 201.5,101.5 215,101.5 "/>
<polygon class="st1" points="215,198.5 201.5,198.5 201.5,185 198.5,185 198.5,198.5 185,198.5 185,201.5 198.5,201.5 198.5,215 
	201.5,215 201.5,201.5 215,201.5 "/>
<polygon class="st1" points="215,298.5 201.5,298.5 201.5,285 198.5,285 198.5,298.5 185,298.5 185,301.5 198.5,301.5 198.5,315 
	201.5,315 201.5,301.5 215,301.5 "/>
<polygon class="st1" points="215,398.5 201.5,398.5 201.5,385 198.5,385 198.5,398.5 185,398.5 185,401.5 198.5,401.5 198.5,415 
	201.5,415 201.5,401.5 215,401.5 "/>
<polygon class="st2" points="315,198.5 301.5,198.5 301.5,185 298.5,185 298.5,198.5 285,198.5 285,201.5 298.5,201.5 298.5,215 
	301.5,215 301.5,201.5 315,201.5 "/>
<polygon class="st2" points="315,298.5 301.5,298.5 301.5,285 298.5,285 298.5,298.5 285,298.5 285,301.5 298.5,301.5 298.5,315 
	301.5,315 301.5,301.5 315,301.5 "/>
<polygon class="st2" points="315,398.5 301.5,398.5 301.5,385 298.5,385 298.5,398.5 285,398.5 285,401.5 298.5,401.5 298.5,415 
	301.5,415 301.5,401.5 315,401.5 "/>
<polygon class="st2" points="415,298.5 401.5,298.5 401.5,285 398.5,285 398.5,298.5 385,298.5 385,301.5 398.5,301.5 398.5,315 
	401.5,315 401.5,301.5 415,301.5 "/>
</svg>
